<?xml version="1.0" encoding="utf-8"?>
<!-- Generator: Adobe Illustrator 22.0.1, SVG Export Plug-In . SVG Version: 6.00 Build 0)  -->
<svg version="1.1" id="Layer_1" xmlns="http://www.w3.org/2000/svg" xmlns:xlink="http://www.w3.org/1999/xlink" x="0px" y="0px"
	 viewBox="0 0 84 81" style="enable-background:new 0 0 84 81;" xml:space="preserve">
<style type="text/css">
	.st0{fill:#FFFFFF;}
</style>
<g>
	<path class="st0" d="M41.8,7.3c2.5,6.6,6.5,13.2,12,19.6c5.5,6.4,12.3,11,20.3,13.7c-4.1,0.5-7.8,1.7-11,3.8
		c-3.2,2.1-6.1,4.6-8.8,7.7c-2.6,3.1-5,6.5-7,10.3c-2.1,3.8-3.9,7.5-5.5,11.2c-1.6-3.7-3.4-7.4-5.5-11.2c-2.1-3.8-4.4-7.2-6.9-10.3
		c-2.5-3.1-5.4-5.7-8.8-7.7c-3.3-2.1-6.9-3.3-10.8-3.8c8-2.7,14.7-7.3,20.1-13.7C35.4,20.5,39.3,14,41.8,7.3z"/>
</g>
</svg>
