<svg width="51" height="36" viewBox="0 0 51 36" fill="none" xmlns="http://www.w3.org/2000/svg">
<path d="M49.9343 5.63278C49.3478 3.41559 47.6196 1.66941 45.4254 1.07681C41.4482 0 25.5 0 25.5 0C25.5 0 9.55194 0 5.57463 1.07681C3.3804 1.6695 1.65224 3.41559 1.06569 5.63278C0 9.65156 0 18.0364 0 18.0364C0 18.0364 0 26.4212 1.06569 30.44C1.65224 32.6572 3.3804 34.3306 5.57463 34.9232C9.55194 36 25.5 36 25.5 36C25.5 36 41.4481 36 45.4254 34.9232C47.6196 34.3306 49.3478 32.6572 49.9343 30.44C51 26.4212 51 18.0364 51 18.0364C51 18.0364 51 9.65156 49.9343 5.63278ZM20.2841 25.6492V10.4236L33.6135 18.0366L20.2841 25.6492Z" fill="white"/>
</svg>
